<svg width="48" height="49" viewBox="0 0 48 49" fill="none" xmlns="http://www.w3.org/2000/svg">
<path d="M31 33.7994L22 24.7995L31 15.7994L28 12.7994L16 24.7995L28 36.7994L31 33.7994Z" fill="#91D88E"/>
<path fill-rule="evenodd" clip-rule="evenodd" d="M4 24.7994C4 35.8451 12.9543 44.7994 24 44.7994C35.0457 44.7994 44 35.8451 44 24.7994C44 13.7537 35.0457 4.79944 24 4.79944C12.9593 4.81156 4.01212 13.7588 4 24.7994ZM24.008 8.81544C15.1746 8.81102 8.00883 15.966 7.99999 24.7994C8.00883 33.6329 15.1746 40.8199 24.008 40.8154C32.8414 40.811 40 33.6489 40 24.8154C40 15.982 32.8414 8.81986 24.008 8.81544Z" fill="#91D88E"/>
</svg>
