<svg width="50" height="48" viewBox="0 0 50 48" fill="none" xmlns="http://www.w3.org/2000/svg">
<g clip-path="url(#clip0_43_36102)">
<path d="M35.4813 18.7017C35.7747 18.4258 35.9395 18.0515 35.9395 17.6613C35.9395 17.2711 35.7747 16.8968 35.4813 16.6209C35.1879 16.345 34.7899 16.1899 34.375 16.1899C33.9601 16.1899 33.5622 16.345 33.2688 16.6209L25 24.4004L21.4188 21.0294C21.2735 20.8927 21.101 20.7844 20.9112 20.7104C20.7214 20.6365 20.518 20.5984 20.3125 20.5984C20.1071 20.5984 19.9036 20.6365 19.7138 20.7104C19.524 20.7844 19.3515 20.8927 19.2063 21.0294C19.061 21.166 18.9458 21.3282 18.8671 21.5067C18.7885 21.6852 18.748 21.8766 18.748 22.0698C18.748 22.263 18.7885 22.4543 18.8671 22.6328C18.9458 22.8113 19.061 22.9735 19.2063 23.1102L23.8938 27.5187C24.0389 27.6555 24.2113 27.7641 24.4012 27.8382C24.591 27.9122 24.7945 27.9504 25 27.9504C25.2055 27.9504 25.409 27.9122 25.5989 27.8382C25.7887 27.7641 25.9611 27.6555 26.1063 27.5187L35.4813 18.7017V18.7017Z" fill="white"/>
<path d="M1.5625 2.96631C1.1481 2.96631 0.750671 3.12113 0.457646 3.39671C0.16462 3.6723 0 4.04607 0 4.4358C0 4.82554 0.16462 5.19931 0.457646 5.47489C0.750671 5.75047 1.1481 5.9053 1.5625 5.9053H5.03125L6.28437 10.6282L10.9656 34.0961C11.0326 34.4328 11.2227 34.7369 11.5028 34.9559C11.783 35.1748 12.1357 35.2949 12.5 35.2952H15.625C13.9674 35.2952 12.3777 35.9145 11.2056 37.0168C10.0335 38.1191 9.375 39.6142 9.375 41.1731C9.375 42.7321 10.0335 44.2272 11.2056 45.3295C12.3777 46.4318 13.9674 47.0511 15.625 47.0511C17.2826 47.0511 18.8723 46.4318 20.0444 45.3295C21.2165 44.2272 21.875 42.7321 21.875 41.1731C21.875 39.6142 21.2165 38.1191 20.0444 37.0168C18.8723 35.9145 17.2826 35.2952 15.625 35.2952H37.5C35.8424 35.2952 34.2527 35.9145 33.0806 37.0168C31.9085 38.1191 31.25 39.6142 31.25 41.1731C31.25 42.7321 31.9085 44.2272 33.0806 45.3295C34.2527 46.4318 35.8424 47.0511 37.5 47.0511C39.1576 47.0511 40.7473 46.4318 41.9194 45.3295C43.0915 44.2272 43.75 42.7321 43.75 41.1731C43.75 39.6142 43.0915 38.1191 41.9194 37.0168C40.7473 35.9145 39.1576 35.2952 37.5 35.2952H40.625C40.9893 35.2949 41.342 35.1748 41.6221 34.9559C41.9023 34.7369 42.0923 34.4328 42.1594 34.0961L46.8469 10.5842C46.8891 10.3721 46.8811 10.1539 46.8235 9.94499C46.766 9.73612 46.6602 9.54174 46.5137 9.37566C46.3672 9.20958 46.1837 9.07587 45.9761 8.98403C45.7685 8.8922 45.5419 8.84448 45.3125 8.84428H9.03125L7.76562 4.08018C7.68128 3.76214 7.48629 3.47975 7.21166 3.27791C6.93703 3.07608 6.59853 2.9664 6.25 2.96631H1.5625ZM13.7969 32.3562L9.69375 11.7833H43.4312L39.3281 32.3562H13.7969V32.3562ZM18.75 41.1731C18.75 41.9526 18.4208 42.7002 17.8347 43.2513C17.2487 43.8025 16.4538 44.1121 15.625 44.1121C14.7962 44.1121 14.0013 43.8025 13.4153 43.2513C12.8292 42.7002 12.5 41.9526 12.5 41.1731C12.5 40.3937 12.8292 39.6461 13.4153 39.095C14.0013 38.5438 14.7962 38.2342 15.625 38.2342C16.4538 38.2342 17.2487 38.5438 17.8347 39.095C18.4208 39.6461 18.75 40.3937 18.75 41.1731V41.1731ZM40.625 41.1731C40.625 41.9526 40.2957 42.7002 39.7097 43.2513C39.1236 43.8025 38.3288 44.1121 37.5 44.1121C36.6712 44.1121 35.8763 43.8025 35.2903 43.2513C34.7042 42.7002 34.375 41.9526 34.375 41.1731C34.375 40.3937 34.7042 39.6461 35.2903 39.095C35.8763 38.5438 36.6712 38.2342 37.5 38.2342C38.3288 38.2342 39.1236 38.5438 39.7097 39.095C40.2957 39.6461 40.625 40.3937 40.625 41.1731V41.1731Z" fill="white"/>
</g>
<defs>
<clipPath id="clip0_43_36102">
<rect width="50" height="47.0238" fill="white" transform="translate(0 0.0273438)"/>
</clipPath>
</defs>
</svg>
