<svg width="32" height="35" viewBox="0 0 32 35" fill="none" xmlns="http://www.w3.org/2000/svg">
<path d="M24.4246 8.52321L20.0123 8.5158L20.0135 7.78455C20.0156 6.57295 18.9397 5.58898 17.6105 5.58674L14.4016 5.58135C13.0725 5.57912 11.9933 6.55948 11.9913 7.77107L11.99 8.50232L7.5778 8.49491C6.47018 8.49305 5.57086 9.31004 5.56916 10.3197L5.56671 11.7822C5.56603 12.1861 5.92462 12.514 6.3677 12.5148L25.6211 12.5471C26.0642 12.5479 26.4239 12.2211 26.4246 11.8172L26.4271 10.3547C26.4287 9.34508 25.5322 8.52507 24.4246 8.52321ZM13.5957 7.77377C13.5964 7.37066 13.957 7.04312 14.3992 7.04386L17.6081 7.04925C18.0503 7.04999 18.4098 7.37875 18.4091 7.78185L18.4079 8.51311L13.5945 8.50502L13.5957 7.77377Z" fill="#7F7F7F"/>
<path d="M7.20056 13.9026C7.05927 13.9024 6.94649 14.0134 6.953 14.1463L7.58455 27.0562C7.64292 28.251 8.68358 29.1884 9.95346 29.1905L21.9782 29.2107C23.2481 29.2128 24.2919 28.2789 24.3543 27.0843L25.0293 14.1766C25.0362 14.0438 24.9238 13.9324 24.7825 13.9322L7.20056 13.9026ZM19.1557 15.7865C19.1564 15.3746 19.5113 15.0416 19.9488 15.0423C20.3862 15.0431 20.74 15.3773 20.7393 15.7892L20.723 25.481C20.7223 25.8929 20.3674 26.2259 19.93 26.2252C19.4925 26.2244 19.1387 25.8902 19.1394 25.4783L19.1557 15.7865ZM15.1966 15.7799C15.1973 15.368 15.5522 15.0349 15.9897 15.0357C16.4271 15.0364 16.7809 15.3706 16.7802 15.7825L16.7639 25.4743C16.7632 25.8862 16.4083 26.2192 15.9709 26.2185C15.5334 26.2178 15.1796 25.8836 15.1803 25.4717L15.1966 15.7799ZM11.2375 15.7732C11.2382 15.3613 11.5931 15.0283 12.0306 15.029C12.468 15.0298 12.8218 15.364 12.8211 15.7759L12.8048 25.4677C12.8041 25.8796 12.4492 26.2126 12.0118 26.2119C11.5743 26.2111 11.2205 25.8769 11.2212 25.465L11.2375 15.7732Z" fill="#7F7F7F"/>
</svg>
