<svg width="33" height="33" viewBox="0 0 33 33" fill="none" xmlns="http://www.w3.org/2000/svg">
<rect x="1" y="1" width="31" height="31" rx="15.5" fill="#999999"/>
<rect x="1" y="1" width="31" height="31" rx="15.5" stroke="white" stroke-width="2"/>
<path fill-rule="evenodd" clip-rule="evenodd" d="M16.5 14.0625C15.1538 14.0625 14.0625 15.1538 14.0625 16.5C14.0625 17.8462 15.1538 18.9375 16.5 18.9375C17.8462 18.9375 18.9375 17.8462 18.9375 16.5C18.9375 15.1538 17.8462 14.0625 16.5 14.0625ZM13.25 16.5C13.25 14.7051 14.7051 13.25 16.5 13.25C18.2949 13.25 19.75 14.7051 19.75 16.5C19.75 18.2949 18.2949 19.75 16.5 19.75C14.7051 19.75 13.25 18.2949 13.25 16.5Z" fill="white"/>
<path fill-rule="evenodd" clip-rule="evenodd" d="M15.4844 11.625C15.2286 11.625 14.9878 11.7454 14.8344 11.95L14.3469 12.6C14.04 13.0092 13.5584 13.25 13.0469 13.25H12.0312C11.3582 13.25 10.8125 13.7957 10.8125 14.4688V19.3438C10.8125 20.0168 11.3582 20.5625 12.0312 20.5625H20.9688C21.6418 20.5625 22.1875 20.0168 22.1875 19.3438V14.4688C22.1875 13.7957 21.6418 13.25 20.9688 13.25H19.9531C19.4416 13.25 18.96 13.0092 18.6531 12.6L18.1656 11.95C18.0122 11.7454 17.7714 11.625 17.5156 11.625H15.4844ZM14.1844 11.4625C14.4913 11.0533 14.9729 10.8125 15.4844 10.8125H17.5156C18.0271 10.8125 18.5087 11.0533 18.8156 11.4625L19.3031 12.1125C19.4566 12.3171 19.6974 12.4375 19.9531 12.4375H20.9688C22.0906 12.4375 23 13.3469 23 14.4688V19.3438C23 20.4656 22.0906 21.375 20.9688 21.375H12.0312C10.9094 21.375 10 20.4656 10 19.3438V14.4688C10 13.3469 10.9094 12.4375 12.0312 12.4375H13.0469C13.3026 12.4375 13.5434 12.3171 13.6969 12.1125L14.1844 11.4625Z" fill="white"/>
</svg>
